<?xml version="1.0" encoding="UTF-8"?>
<svg id="Capa_1" data-name="Capa 1" xmlns="http://www.w3.org/2000/svg" viewBox="0 0 1150 1150">
  <defs>
    <style>
      .cls-1 {
        fill: #f77;
      }

      .cls-2 {
        fill: #fff;
      }

      .cls-3 {
        fill: #ffe047;
      }

      .cls-4 {
        fill: #ffa2a2;
      }

      .cls-5 {
        fill: #ffbe24;
      }

      .cls-6 {
        fill: #ffaf5e;
      }
    </style>
  </defs>
  <path class="cls-3" d="M984.95,434l3.75,2.3c.26,.16,.42,.38,.49,.67,.39,1.6,1.1,3.09,2.13,4.49,.74,1.01,1.66,1.71,2.75,2.1,6.68,2.37,13.77,5.1,21.26,8.19,5.94,2.46,11.14,6.21,15.59,11.27,3.2,3.65,5.4,7.49,5.65,12.59,.25,5.01,1.52,11.31-3.21,14.52-2.4,1.63-4.25,5.41-5.26,7.84-3.87,9.29-8.17,17.63-12.9,25.01-.18,.28-.43,.43-.75,.44-2.49,.18-4.36,.9-5.59,2.16-4.13,4.2-8.59,8.08-13.38,11.64-3.37,2.5-6.17,5.02-8.41,7.56-4,4.56-8.2,9.29-12.59,14.19-4.53,5.04-7.59,10.71-13.08,14.93-1.93,1.49-2.11,3.67-4.02,5.16-3.19,2.52-6.01,5.72-9.01,8.63-4.08,3.96-8.85,8.54-14.29,13.74-3.42,3.27-7.01,6.51-11.91,7.5-14.13,2.87-26.04-.6-35.72-10.4-4.74-4.8-7.98-10.73-9.7-17.81-.19-.78-.83-1.36-1.63-1.48-8.21-1.14-14.87-5.04-19.97-11.7-.82-1.37-1.63-2.73-2.45-4.06-.71-1.18-1.24-2.42-1.57-3.71-.38-1.49-.7-3.03-.97-4.64-.59-3.5-.56-7.22,.11-11.15,.65-3.84,1.24-7.63,1.78-11.39,1.17-8.26,4.72-14.49,9.93-21,.47-.59,.62-1.37,.4-2.1-1-3.28-1.48-6.76-1.44-10.43,0-.76-.53-1.42-1.28-1.55-6.02-1.09-11.96-2.35-17.82-3.76-6-1.44-12.27-2.28-18.38-3.38-.74-.13-1.12,.18-1.13,.93-.06,2.29-.02,4.44-.62,6.61-2.61,9.52-8.68,16.14-16.38,22.27-6.62,5.28-13.48,10.55-19.93,16.22-9.62,8.47-19.05,16.86-29.6,24.51-4.43,3.21-9.41,5.43-14.1,8.08-1.29,.73-2.29,1.76-3,3.11-.08,.14-.09,.32-.04,.47,.19,.61-.34,1.13-1.61,1.54-10.38,1.86-20.16,5.38-29.33,10.56-9.04,5.11-17.74,12.85-21.86,22.32-1.1-.6-1.75-1.36-1.93-2.29-.15-.73,.17-1.53,.94-2.39,.64-.71,1.29-1.4,1.98-2.07,.7-.68,1.34-1.38,1.94-2.1,2.14-2.56,4.38-4.99,6.72-7.27,.76-.74,.6-1.08-.45-1.03-.62,.03-1.26,.07-1.91,.11-.6,.04-1.23-.03-1.88-.21-1.96-.54-4.31-.84-7.05-.9-1.09-.02-2.03,.04-2.81,.18-1.32,.24-1.95,1.2-1.89,2.87,.12,3.44,.41,6.75,.88,9.94,.16,1.13,.45,2.22,.85,3.26,.62,1.59,.54,3.46-.26,5.62-.34,.91-.53,1.81-.56,2.69-.04,.98-.1,1.92-.18,2.83-.05,.62,.06,1.33,.34,2.13,.25,.71,.38,1.41,.37,2.11-.03,1.72,.67,3.28,.8,4.98,.18,2.6,.36,5.08,.14,7.71-.67,7.62-1.19,14.5-3.08,22.31-2.86,11.89-8.59,21.82-19.33,28.46-4.97,3.07-10.06,4.85-15.29,5.35-5.71,.54-11.38,.21-17.02-.99-.25-.05-.48,0-.68,.18-1.11,.97-2.25,2.25-3.42,3.85-4.38,5.98-9.94,11.28-16.69,15.92-1.13,.78-1.66,1.9-3.03,2.47-3.77,1.58-7.3,3.04-10.6,4.37-1.15,.46-2.11,1.17-2.87,2.12-.5,.64-.79,1.42-.85,2.37-.05,.86-.11,1.73-.16,2.61-21.67,1.22-45.32-.9-65.65-8.7-6.54-2.5-13.37-6.26-18.24-11.33-4.49-4.67-9.65-8.67-16.22-8.88-10.55-.34-14.86,9.16-11.48,18.17,7.21,19.27,30.25,30.07,48.79,35.86,1.37,1.19,1.39,2.13,.05,2.82-1.04,.54-1.64,1.04-2.48,1.66-.59,.43-1.2,.77-1.85,1.03-1.29,.51-2.46,1.2-3.5,2.06-.53,.43-1.13,.71-1.82,.83-.99,.18-1.95,.47-2.88,.89-4.24,1.92-8.45,4.12-11.93,7.26-2.43,2.2-4.78,4.21-6.88,6.75-1.94,2.34-3.94,4.67-6.01,6.99-2.08,2.32-3.83,4.77-5.57,7.3-1.13,1.64-2.55,3.15-4.27,4.55-1.84,1.48-3.67,3.03-5.49,4.65-.68,.61-1.42,1.15-2.2,1.62-1.44,.85-2.76,1.77-3.97,2.76-.99,.82-2.04,1.55-3.14,2.19-1.09,.63-2.14,1.3-3.17,2.02-6.33,4.47-13.07,9.04-20.22,13.71-2.62,1.71-5.13,3.48-7.53,5.31-2.43,1.86-4.87,3.72-7.32,5.58-3.47,2.63-6.92,5.57-10.36,8.81-7.46,7.02-14.72,14.04-21.77,21.05-.68,.68-1.35,1.43-2.01,2.27-.83,1.05-1.68,2.01-2.54,2.9-5.31,5.45-10.83,11.13-16.55,17.05-7.57,7.83-15.77,15.55-24.6,23.17-3.88,3.35-7.58,5.84-11.1,7.46-1.48,.68-2.82,1.43-4.03,2.27-1.8,1.23-3.72,2.13-5.09,3.87-1.72,2.19-3.69,4.02-5.91,5.48-2.23,1.47-3.85,2.71-4.88,3.72-1.74,1.71-3.47,3.35-5.21,4.91-.94,.85-2.61,2.01-4.99,3.5-2.64,1.65-4.73,3.48-6.27,5.51-.74,.97-1.51,1.85-2.3,2.62-.87,.83-1.64,1.69-2.32,2.57-1.16,1.52-2.9,2.07-4.14,3.56-.66,.79-1.37,1.55-2.14,2.29-2,1.91-3.94,3.71-5.81,5.41-1.08,.98-2.04,2.07-2.89,3.28-.39,.56-.83,1.02-1.34,1.38-.25,.18-.43,.43-.51,.72-.28,1.05-.65,2.09-1.1,3.1-.92,2.07-2.2,2.96-3.86,2.68-.71-.12-1.2-.76-1.14-1.47,.17-2.03,0-3.95-.54-5.74-.57-9.41-.72-16.88-.44-22.42,.6-12.07,1.1-23.89,1.49-35.47,.16-4.56,.6-9.06,1.33-13.49,1.97-11.95,4.05-25.85,6.26-41.72,1.9-13.63,3.78-25.45,5.64-35.48,.57-3.02,6.15-34,6.8-37.38,2.15-11.43,4.39-23.08,6.7-34.95,.39-2.03,.63-4,.72-5.91,.11-2.7,1.04-5.14,1.54-7.74,.73-3.82,1.28-7.58,1.64-11.28,.16-1.69-.28-3.19-1.32-4.5-2.52-3.15-5.59-6.44-9.21-9.87-11.94-11.33-23.81-22.39-35.6-33.18-5.52-5.04-10.72-10.09-16.25-15.19-17.25-15.94-35.24-33.52-53.96-52.74-2.68-2.74-5.76-5.19-8.18-8.33-1.09-1.41-2.24-2.8-3.47-4.16-15.48-17.3-30.7-34.75-43.94-54.76-2.89-4.37-6.08-9.69-9.57-15.97-3.53-6.35-6.5-13.33-8.92-20.94-2.11-6.64-2.85-13.18-2.22-19.62,.94-9.66,6.56-17.76,13.96-23.94,5.58-4.66,10.66-8.11,15.26-10.36,5.2-2.54,9.14-4.66,11.84-6.37,2.15,1.94,4.35,3.95,6.6,6.03,2.03,1.88,3.24,3.51,3.65,4.87,.56,1.9,.79,4,.69,6.32-.24,5.68-.45,11.45-1.12,17.25-1.91,16.66-1.94,34.23,4.98,48.78,3.99,8.39,10.18,15.34,18.59,20.85,9.53,6.25,22.21,4.81,32.52,.35,8.82-3.82,16.99-8.71,24.52-14.67,3.55-2.82,6.75-5.4,9.59-7.75,7.77-1.05,15.71-2.73,23.8-5.06,11.18-3.22,21.21-7.51,30.07-12.88,16.31-9.89,30.28-26.48,21.45-46.44-2.33-5.28-7.85-9.62-12.22-12.81,4.43-7.31,8.47-14.82,12.14-22.53,1.39-2.92,2.52-5.96,3.38-9.11,.21-.74,.97-1.18,1.71-.99,9.43,2.44,19.16,2.67,29.19,.71,13.34-2.61,25.29-7.85,35.85-15.73,3.85,.51,7.66,.16,11.44-1.03,3.06-.97,4.69-3.04,4.88-6.21,13.38,6.25,27.21,11.45,41.49,15.62,20.88,6.08,41.99,10.27,63.33,12.58,9.61,1.04,19.33,1.44,29.17,1.19,8.92-.22,17.28-1.26,25.06-3.09,11.54-2.72,24.91-9.09,29.07-21.26,2.44-7.12,3.34-14.19,2.68-21.22-2.18-23.17-19.99-39.83-35.51-55.48-3.16-3.19-5.69-6.32-7.6-9.39-1.54-2.49-1.97-4.93-1.27-7.34,.39-1.32,.66-2.74,.82-4.25,1.58-15,2.01-28.74,1.3-41.2-.47-8.14-1.66-16.77-3.59-25.88-.29-1.39-.67-2.75-1.13-4.1-1.13-3.29-1.72-6.67-2.99-9.9-6.7-17.11-17.14-30.4-34.87-36.32,3.9-4.66,7.76-9.28,11.58-13.86,8.34-10,17.48-18.99,28.76-25.16,12.32-6.73,24.51-6.46,36.58,.81,7.79,4.69,13.63,9.77,19.89,15.71,2.4,2.28,4.52,4.53,6.36,6.75,4.84,5.84,9.59,11.51,13.93,17.52,12.91,17.93,24.57,36.66,34.95,56.19,.65,1.22,1.56,2.39,2.15,3.51,13.69,26.01,24.97,48.62,33.84,67.82,2.54,5.5,4.56,9.65,6.06,12.45,1.16,2.17,1.72,4.3,2.73,6.51,7.61,16.71,15.11,33.26,22.5,49.64,2.26,5.01,4.91,10.21,7.96,15.59,1.4,2.47,5.03,3.54,8.15,3.97,3.22,.44,6.24,1.04,9.04,1.79,2.04,.55,3.6,.44,5.57,.71,33.23,4.53,66.39,9.46,99.49,14.8,2.3,.38,4.51,.63,6.61,.77,3.1,.21,5.92,1.23,8.88,1.76,9.69,1.74,19.58,3.61,29.67,5.62,15.33,3.04,30.71,6.51,46.16,10.42,2.72,.68,5.48,1.46,8.3,2.34,2.83,.88,5.61,1.61,8.35,2.2,.56,.12,1.1,.22,1.62,.3,2.03,.33,3.9,1.02,5.62,2.05Zm-602.12-10.88c-9.43,4.23-14.35,14.4-12.64,24.53,2.4,14.22,17.04,17.36,29.33,13.77,5.72-1.66,10.41-4.84,14.08-9.53,4.68-5.97,5.11-14.68,1.65-21.42-2.86-5.58-9.64-8.87-15.67-9.77-5.68-.84-11.26-.03-16.75,2.42Zm7.39,214.13c-1.2,.06-2.42-.02-3.67-.25-1.6-.28-2.81-.42-3.62-.42-23.17,.3-45.21,14.08-54.23,35.34-3.71,8.76-4.9,18.14-3.55,28.13,.31,2.3,1.27,4.17,1.67,6.4,.28,1.61,.75,3.16,1.39,4.65,3.35,7.84,7.45,14.09,12.29,18.75,17.6,16.96,42.97,22.12,65.83,14.12,5.06-1.77,11.05-4.84,17.97-9.21,6.66-4.2,10.79-11.23,14.39-18,9.15-17.19,8.34-36.41-2.03-52.76-3.72-5.86-8.93-11.42-15.62-16.69,15.85-.21,28.93-5.57,39.23-16.09,17.95-18.32,24.31-45.54,20.57-70.54-.49-3.27-1.47-6.48-2.39-9.69-9.63-33.54-41.04-45.74-73.27-38.74-18.17,3.94-31.25,13.59-39.24,28.94-.19,.36-.47,.46-.83,.31-6.9-2.72-13.12-6.54-18.68-11.45-3.14-2.77-6.38-5.7-9.74-8.77-3.42-3.14-6-.23-6.75,2.97-2.21,9.31,1.98,19.79,7.98,27.08,5.15,6.26,11.85,10.95,20.12,14.06,.56,.21,.94,.58,1.16,1.11,.14,.34-.02,.74-.37,.88-.05,.02-.1,.04-.15,.04-11.46,1.88-22.49,.57-33.08-3.93-3.49-1.48-6.97-2.96-10.44-4.46-3.2-1.38-6.32-.16-5.36,3.78,.56,2.33,1.65,4.49,3.26,6.48,9.09,11.26,23.82,20.28,38.25,21.73,3.12,.31,6.15,.12,9.07-.58,.25-.06,.5,.09,.56,.33,0,0,0,.01,0,.02,4.2,18.56,13.84,34.87,29.31,46.47Z"/>
  <path class="cls-1" d="M493.93,171.51c9.09-.88,17.84-.11,26.28,2.29,17.73,5.93,28.17,19.21,34.87,36.32,1.26,3.23,1.86,6.61,2.99,9.9,.46,1.35,.83,2.72,1.13,4.1,1.93,9.11,3.13,17.74,3.59,25.88,.71,12.47,.28,26.2-1.3,41.2-.16,1.51-.43,2.92-.82,4.25-.7,2.41-.27,4.85,1.27,7.34,1.91,3.07,4.45,6.2,7.6,9.39,15.52,15.65,33.34,32.31,35.51,55.48,.66,7.03-.23,14.1-2.68,21.22-4.16,12.17-17.53,18.54-29.07,21.26-7.79,1.84-16.14,2.87-25.06,3.09-9.84,.25-19.57-.15-29.17-1.19-21.35-2.3-42.46-6.5-63.33-12.58-14.28-4.16-28.11-9.37-41.49-15.62l-5.86-3.19c-.32-.18-.61-.13-.86,.14l-9.6,10.3c-10.56,7.88-22.51,13.13-35.85,15.73-10.03,1.97-19.76,1.73-29.19-.71-.74-.2-1.51,.24-1.71,.99-.86,3.15-1.98,6.19-3.38,9.11-3.67,7.71-7.71,15.22-12.14,22.53-2.86,4.77-5.14,8.44-6.86,11.02-16,24.14-34.6,46.7-56.24,66.17-2.84,2.35-6.04,4.93-9.59,7.75-7.53,5.96-15.7,10.86-24.52,14.67-10.31,4.46-22.99,5.9-32.52-.35-8.41-5.51-14.61-12.46-18.59-20.85-6.92-14.55-6.9-32.12-4.98-48.78,.66-5.8,.87-11.57,1.12-17.25,.1-2.31-.13-4.42-.69-6.32-.41-1.37-1.62-2.99-3.65-4.87-2.25-2.09-4.45-4.1-6.6-6.03l-16.56-17.92c-7.8-9.49-14.67-19.8-20.6-30.92-6.63-12.45-11.29-27.41-10.28-41.25,.81-11.15,4.99-21.05,12.54-29.68,9.68-11.06,21.83-17.57,36.17-20.36,2.93-.57,5.59-.93,7.98-1.08,1.56-.1,3.13-.25,4.7-.46,1.74-.23,3.36-.33,4.86-.3,12.93,.28,25.58,1.92,37.95,4.9,10.5,2.53,20.24,5.45,29.23,8.77,22.44,8.3,42.94,17.75,61.51,28.35,.62,.36,1.29,.58,2.03,.67,.28,.03,.51-.06,.7-.26,6.51-7.16,14.04-12.92,22.58-17.29,2.52-1.29,5.1-2.56,7.73-3.82,1.82-.87,3.57-1.56,5.26-2.08,1.93-.58,3.81-1.19,5.63-1.81,2.32-.8,4.74-1.43,7.25-1.91,2.6-.48,5.06-.89,7.39-1.22,1.12-.16,2.21,.02,3.37-.15,7.15-1.09,13.69-1.13,19.61-.13,1.26,.22,2.14-.26,2.63-1.44l10.78-25.58,1.58-.43c.33-.09,.5,.04,.51,.38,.08,2.21-.29,4.33-1.13,6.38-1.71,4.16-2.81,8.15-3.32,11.97-.4,3.05-.9,13.99,5.36,12.06,3.04-.93,5.83-2.2,8.37-3.79,3.67-2.3,7.46-4.83,11.4-7.57,2.26-1.57,4.7-2.76,6.88-4.26,1.48-1.01,3.1-1.91,4.86-2.69,1.78-.79,3.47-1.56,5.05-2.31,2.72-1.29,6.04-2.06,9.98-2.3,1.55-.1,3.18,.17,4.89,.79,5.49,2,7.88,4.77,11.08,10.45,.5,.88,.82,1.79,.96,2.71,.21,1.35,.68,2.65,1.4,3.91,.21,.36,.32,.77,.34,1.2,.02,.71,.23,1.35,.63,1.92,.19,.27,.3,.57,.32,.9,.13,1.77,.28,3.62,.46,5.55,1.03,10.86-5.55,19.6-15.72,22.61-3.19,.95-6.96,1.91-10.45,2.16-1.19,.08-2.35,.24-3.48,.47-3.09,.64-5.96,.24-9.03,.83-1.51,.3-3.02,.49-4.54,.59-4.45,.28-8.6,1.05-12.45,2.31-1.55,.51-2.47,2.09-1.67,3.68,3.57,7.2,7.69,12.79,12.36,16.77,6.79,5.79,14.89,10.77,24.32,14.94,3.8,1.69,7.33,3.49,11.42,4.4,1.79,.4,3.29,1.27,5.09,1.71,1.78,.45,3.51,.97,5.16,1.58,1.28,.46,2.49,.1,3.6,.93,.34,.25,.72,.36,1.14,.32,1.23-.15,2.33,.05,3.3,.57,.31,.17,.65,.24,1.01,.23,.77-.04,1.47,.09,2.1,.39,1.79,.88,4.23,.66,6.18,.64,1.06,0,1.7,.87,2.81,.87,1.62,0,3.22,.02,4.79,.05,.3,0,.6,.1,.84,.28,.51,.37,.78,.53,1.43,.54,3.48,.1,7.47-.37,10.83,.46,1.69,.42,3.56,.53,5.61,.34,2.01-.19,3.09-1.39,5.36-.34,.1,.05,.21,.05,.31,0l.28-.13c.31-.15,.65-.23,1-.24,2.6-.04,5.33-.06,8.21-.05,1.12,0,2.16-.15,3.11-.46,1.91-.62,3.65-.35,5.55-1.19,.29-.12,.59-.18,.91-.16,.59,.02,1.17-.06,1.73-.26,.64-.23,1.32-.42,2.07-.58,1.9-.41,3.73-.95,5.49-1.61,4.86-1.81,9.08-4.25,12.66-7.31,1.49-1.28,3.2-3.57,5.14-6.89,1.59-2.7,2.15-6.53,2.79-9.74,.54-2.7,.57-5.64,.1-8.81-.95-6.32-2.55-12.29-4.81-17.93-1.46-3.65-3.03-7.16-4.72-10.54-.77-1.56-1.74-3.11-2.9-4.65-1.09-1.45-2.17-2.95-3.24-4.49-1.79-2.59-3.9-5.11-6.32-7.55-.21-.21-.34-.46-.41-.75-.12-.54-.46-.87-1.03-1-.3-.07-.56-.21-.78-.42-1.95-1.81-3.72-3.79-5.93-5.34-2.41-1.69-4.38-3.69-5.89-6-.86-1.32-1.98-2.2-2.59-3.64-.74-1.76-1.46-3.63-2.15-5.61-.42-1.22-.65-2.51-.67-3.87-.08-4.42,1.25-9.28,2.98-13.24,1.44-3.28,2.53-6.42,3.28-9.4,1.08-4.32,1.75-8.59,2.01-12.82,.12-1.92,1.1-3.48,.44-5.38-.84-2.5-.43-5.78-.5-8.41-.04-1.51-.27-3.09-.68-4.73-.46-1.84-.89-3.74-1.29-5.7-.41-1.97-1.19-4.25-2.37-6.83-.25-.56-.16-.9-.44-1.46-1.05-2.06-2.05-4.08-3.01-6.04-.76-1.55-1.88-2.71-2.6-4.29-.5-1.07-1.16-2.05-2.01-2.95-3.67-3.86-7.14-7.87-11.95-10.21-6.46-3.14-13.38-4.69-20.77-4.66-7.92,.04-17.09,3.9-23.62,8.18-5.84,3.84-11.67,8.46-17.49,13.88-5.15,4.81-8.83,9.68-13.29,14.84-3.42,3.96-6.22,8.36-9.12,12.67-.91,1.35-2.11,2.37-3.59,3.04-.19,.09-.42,0-.51-.19-.04-.08-.05-.18-.02-.27,.16-.56-.06-.9-.66-1.02,4.51-7.16,8.83-13.52,12.94-19.1,6.1-8.27,13.1-16.16,20.99-23.68,9.04-8.61,19.37-15.2,31-19.76,2.17-.85,6.05-1.83,11.65-2.93ZM219.05,302c-.97-.88-2.04-1.41-3.2-1.57-1.95-.28-2.96-.43-3.02-.44-1.89-.58-3.56-.9-5.01-.95-4.53-.18-8.85-.58-12.96-1.19-6.61-.98-13.38-1.49-19.7-.38-3.01,.53-6.06,1.12-9.14,1.79-14.96,3.22-25.08,17.67-28.14,31.76-.62,2.87-.37,5.82-.29,8.74,.05,1.81,.64,3.41,.85,5.23,.15,1.33,.42,2.63,.81,3.89,1.68,5.58,3.85,10.76,6.51,15.52,.79,1.42,1.58,2.85,2.38,4.29,.83,1.49,1.78,2.93,2.84,4.32,7.31,9.46,15.14,17.93,25.21,23.5,3.79,2.1,7.1,4.88,9.52,8.4,1.86,2.7,2.98,5.67,3.36,8.89,.48,4.14,.41,8.1-.23,11.88-.31,1.88-.47,3.46-.46,4.75,0,1.62-.1,3.24-.33,4.88-.11,.83,.34,1.41,.14,2.16-.8,2.84-.87,5.79-.19,8.86,.6,2.71,0,5.22,.99,7.94,1.13,3.12,1.16,6.47,2.04,9.66,2.36,8.49,5.89,16.38,10.61,23.67,4.31,6.68,9.54,11.3,17.29,13.8,2.09,.68,4.21,.83,6.36,.47,4.46-.74,8.34-1.77,11.64-3.08,4.36-1.72,9.18-5,13.25-7.81,.99-.68,2-1.29,3.03-1.84,2.31-1.22,3.76-3.14,5.82-4.65,1.1-.82,2.13-1.67,3.09-2.56,1.51-1.41,3.14-2.79,4.88-4.13,2.79-2.16,4.55-5.14,7.03-7.64,8.69-8.79,16.14-19.57,22.28-30.14,2.78-4.78,5.59-10.88,8.44-18.29,.59-1.55,1.06-3.15,1.41-4.82,.34-1.64,.8-3.3,1.4-4.98,.44-1.25,.77-2.79,.98-4.62,.19-1.63,.41-3.18,.66-4.65,.54-3.08,.47-6.4-.24-9.97-.24-1.25-.4-2.46-.47-3.64-.08-1.34-.54-2.71-1.38-4.12-.41-.68-.53-1.42-.36-2.22,.08-.36-.07-.55-.44-.55-2.36-.02-4.41,.52-6.14,1.62-5.29,3.33-10.61,6.77-15.97,10.33-5.04,3.35-9.92,5.83-15.58,7.14-.64,.15-1.25,.33-1.85,.56-2.14,.83-6.03,.4-8.31,.4-.36,0-.66-.14-.89-.43-.31-.39-.71-.55-1.21-.49-.42,.05-.81-.03-1.18-.23-1.19-.64-2.36-1.22-3.52-1.75-.88-.4-1.6-.95-2.14-1.66-.89-1.16-1.9-2.24-3.02-3.25-.26-.23-.41-.52-.46-.86-.15-1.07-1.25-1.57-1.74-2.51-.84-1.6-1.58-3.25-2.23-4.93-.67-1.75-1.34-3.47-2.01-5.15-.23-.59-.37-1.21-.41-1.86-.12-1.65-.89-2.88-1.02-4.62-.23-3.12-.12-5.69,.33-7.72,.62-2.84,1.88-5.02,3.76-6.56,3.82-3.12,8.56-5.15,14.21-6.12,2.05-.35,4.12-.69,6.21-1.02,2.48-.38,4.9-.19,7.34-.61,3.67-.63,6.93-.55,10.53-.83,4.6-.35,8.52-1.97,11.74-4.87,.46-.41,.61-1.07,.36-1.64-1.75-4.07-4.19-7.46-7.3-10.16-6.48-5.61-13.54-10.32-21.19-14.12-2.12-1.05-3.3-2.98-5.51-4.14-8.67-4.54-17.5-8.05-26.47-10.55-3.76-1.05-7.88-2.2-12.36-3.45-.46-.13-.86-.34-1.21-.65Zm117.95,17.26c-7.68,3.37-13.92,9.82-18.27,16.36-1.62,2.43-2.14,5.6-2.96,8.44-.93,3.25-.69,8.02,.59,11.57,2.57,7.14,5.35,12.43,12.3,16.01,5.58,2.87,11.38,4.19,17.41,3.95,4.57-.18,9.43-.81,14.59-1.9,1.52-.33,2.76-.96,4.19-1.43,1.6-.52,3.25-.95,4.95-1.28,1.63-.31,3.16-.9,4.61-1.75,3.54-2.09,7.26-4.77,11.13-8.04,2.09-1.75,2.4-4.37,4.4-6.21,1.07-.98,1.89-2.12,2.47-3.42,1.97-4.43,3.05-8.73,3.26-12.9,.16-3.35-1.11-6.96-2.18-10.09-.9-2.63-2.64-5.25-5.23-7.87-5.24-5.32-11.64-8.19-19.19-8.44-7.64-.25-14.37,.55-20.18,2.42-3.7,1.19-7.67,2.72-11.9,4.57Z"/>
  <path class="cls-4" d="M395.01,278.96c6.58-14.49,14.03-28.48,22.34-41.97,.6,.12,.83,.46,.66,1.02-.06,.21,.06,.42,.26,.48,.09,.03,.18,.02,.26-.02,1.49-.67,2.69-1.68,3.59-3.04,2.89-4.31,5.7-8.71,9.12-12.67,4.46-5.16,8.14-10.04,13.29-14.84,5.82-5.42,11.65-10.05,17.49-13.88,6.53-4.28,15.7-8.15,23.62-8.18,7.39-.03,14.31,1.52,20.77,4.66,4.81,2.34,8.28,6.35,11.95,10.21,.84,.9,1.51,1.88,2.01,2.95,.73,1.58,1.84,2.74,2.6,4.29,.96,1.97,1.97,3.98,3.01,6.04,.28,.56,.2,.9,.44,1.46,1.17,2.58,1.96,4.86,2.37,6.83,.4,1.95,.83,3.85,1.29,5.7,.41,1.64,.64,3.22,.68,4.73,.07,2.63-.34,5.92,.5,8.41,.65,1.91-.33,3.46-.44,5.38-.25,4.23-.92,8.5-2.01,12.82-.74,2.98-1.84,6.12-3.28,9.4-1.72,3.96-3.06,8.82-2.98,13.24,.02,1.36,.25,2.65,.67,3.87,.69,1.98,1.41,3.85,2.15,5.61,.61,1.43,1.72,2.32,2.59,3.64,1.51,2.31,3.48,4.31,5.89,6,2.2,1.55,3.97,3.53,5.93,5.34,.22,.21,.48,.35,.78,.42,.56,.13,.9,.46,1.03,1,.07,.29,.2,.54,.41,.75,2.42,2.44,4.52,4.96,6.32,7.55,1.06,1.54,2.14,3.04,3.24,4.49,1.16,1.54,2.13,3.09,2.9,4.65,1.69,3.38,3.26,6.9,4.72,10.54,2.26,5.64,3.86,11.61,4.81,17.93,.47,3.17,.44,6.11-.1,8.81-.64,3.2-1.2,7.03-2.79,9.74-1.94,3.31-3.66,5.61-5.14,6.89-3.57,3.06-7.79,5.5-12.66,7.31-1.76,.66-3.59,1.19-5.49,1.61-.74,.16-1.43,.35-2.07,.58-.56,.2-1.14,.29-1.73,.26-.31-.01-.62,.04-.91,.16-1.91,.83-3.65,.57-5.55,1.19-.96,.31-1.99,.46-3.11,.46-2.88,0-5.62,.01-8.21,.05-.35,0-.68,.08-1,.24l-.28,.13c-.1,.05-.21,.05-.31,0-2.28-1.04-3.36,.15-5.36,.34-2.04,.19-3.91,.08-5.61-.34-3.37-.83-7.36-.36-10.83-.46-.65-.02-.93-.17-1.43-.54-.25-.18-.54-.28-.84-.28-1.57-.02-3.17-.04-4.79-.05-1.12,0-1.75-.88-2.81-.87-1.95,.02-4.39,.24-6.18-.64-.63-.3-1.33-.43-2.1-.39-.36,.02-.69-.06-1.01-.23-.97-.53-2.07-.72-3.3-.57-.42,.04-.8-.06-1.14-.32-1.12-.83-2.32-.47-3.6-.93-1.66-.6-3.38-1.13-5.16-1.58-1.8-.44-3.3-1.32-5.09-1.71-4.09-.91-7.62-2.71-11.42-4.4-9.42-4.17-17.53-9.16-24.32-14.94-4.66-3.98-8.78-9.57-12.36-16.77-.8-1.6,.12-3.18,1.67-3.68,3.85-1.26,8-2.04,12.45-2.31,1.51-.1,3.02-.29,4.54-.59,3.07-.59,5.94-.2,9.03-.83,1.13-.23,2.28-.39,3.48-.47,3.49-.25,7.26-1.21,10.45-2.16,10.17-3.01,16.75-11.75,15.72-22.61-.18-1.94-.34-3.79-.46-5.55-.02-.33-.12-.63-.32-.9-.4-.57-.61-1.22-.63-1.92-.01-.42-.13-.83-.34-1.2-.72-1.26-1.19-2.56-1.4-3.91-.14-.93-.46-1.83-.96-2.71-3.19-5.68-5.59-8.46-11.08-10.45-1.71-.62-3.34-.89-4.89-.79-3.94,.24-7.26,1-9.98,2.3-1.58,.76-3.27,1.53-5.05,2.31-1.77,.78-3.39,1.68-4.86,2.69-2.18,1.5-4.62,2.69-6.88,4.26-3.93,2.74-7.73,5.26-11.4,7.57-2.54,1.6-5.33,2.86-8.37,3.79-6.26,1.93-5.76-9.01-5.36-12.06,.51-3.82,1.62-7.81,3.32-11.97,.84-2.04,1.22-4.17,1.13-6.38-.01-.34-.18-.47-.51-.38l-1.58,.43Z"/>
  <path class="cls-4" d="M219.05,302c.34,.31,.75,.53,1.21,.65,4.48,1.25,8.6,2.4,12.36,3.45,8.97,2.5,17.79,6.02,26.47,10.55,2.2,1.16,3.38,3.09,5.51,4.14,7.65,3.8,14.71,8.5,21.19,14.12,3.12,2.7,5.55,6.09,7.3,10.16,.24,.57,.1,1.23-.36,1.64-3.22,2.9-7.14,4.52-11.74,4.87-3.59,.27-6.86,.2-10.53,.83-2.44,.42-4.86,.23-7.34,.61-2.09,.33-4.16,.67-6.21,1.02-5.65,.96-10.39,3-14.21,6.12-1.88,1.54-3.13,3.72-3.76,6.56-.45,2.03-.56,4.61-.33,7.72,.13,1.74,.9,2.97,1.02,4.62,.04,.65,.18,1.27,.41,1.86,.67,1.68,1.33,3.4,2.01,5.15,.65,1.68,1.39,3.32,2.23,4.93,.49,.94,1.6,1.44,1.74,2.51,.05,.34,.2,.63,.46,.86,1.13,1.01,2.13,2.09,3.02,3.25,.54,.71,1.26,1.26,2.14,1.66,1.16,.53,2.33,1.11,3.52,1.75,.37,.2,.76,.28,1.18,.23,.5-.06,.9,.1,1.21,.49,.23,.28,.53,.43,.89,.43,2.28,0,6.17,.43,8.31-.4,.6-.23,1.22-.42,1.85-.56,5.66-1.31,10.53-3.79,15.58-7.14,5.36-3.55,10.68-6.99,15.97-10.33,1.74-1.09,3.78-1.63,6.14-1.62,.37,0,.51,.19,.44,.55-.16,.8-.04,1.54,.36,2.22,.84,1.41,1.3,2.78,1.38,4.12,.07,1.18,.23,2.39,.47,3.64,.7,3.57,.78,6.89,.24,9.97-.25,1.47-.47,3.02-.66,4.65-.21,1.83-.54,3.37-.98,4.62-.59,1.68-1.06,3.34-1.4,4.98-.34,1.66-.81,3.27-1.41,4.82-2.85,7.41-5.66,13.51-8.44,18.29-6.13,10.57-13.58,21.35-22.28,30.14-2.48,2.5-4.25,5.48-7.03,7.64-1.74,1.34-3.37,2.72-4.88,4.13-.96,.89-1.98,1.74-3.09,2.56-2.06,1.52-3.5,3.44-5.82,4.65-1.03,.55-2.04,1.16-3.03,1.84-4.06,2.81-8.88,6.09-13.25,7.81-3.3,1.31-7.18,2.33-11.64,3.08-2.15,.36-4.27,.21-6.36-.47-7.76-2.5-12.98-7.12-17.29-13.8-4.71-7.29-8.25-15.18-10.61-23.67-.88-3.19-.92-6.54-2.04-9.66-.99-2.72-.39-5.23-.99-7.94-.68-3.06-.61-6.01,.19-8.86,.21-.75-.24-1.33-.14-2.16,.22-1.64,.33-3.27,.33-4.88,0-1.29,.15-2.87,.46-4.75,.64-3.77,.71-7.73,.23-11.88-.38-3.22-1.49-6.19-3.36-8.89-2.42-3.52-5.73-6.31-9.52-8.4-10.06-5.57-17.89-14.04-25.21-23.5-1.06-1.39-2.01-2.82-2.84-4.32-.79-1.45-1.58-2.88-2.38-4.29-2.66-4.76-4.82-9.93-6.51-15.52-.39-1.26-.66-2.56-.81-3.89-.21-1.81-.81-3.41-.85-5.23-.08-2.92-.33-5.87,.29-8.74,3.06-14.09,13.17-28.54,28.14-31.76,3.08-.67,6.12-1.26,9.14-1.79,6.32-1.11,13.08-.6,19.7,.38,4.11,.61,8.43,1.01,12.96,1.19,1.45,.05,3.12,.37,5.01,.95,.06,.02,1.07,.17,3.02,.44,1.16,.16,2.23,.69,3.2,1.57Z"/>
  <path class="cls-4" d="M337,319.26c4.23-1.86,8.2-3.38,11.9-4.57,5.81-1.87,12.54-2.68,20.18-2.42,7.55,.24,13.95,3.12,19.19,8.44,2.58,2.62,4.33,5.24,5.23,7.87,1.07,3.13,2.34,6.74,2.18,10.09-.21,4.17-1.29,8.47-3.26,12.9-.57,1.3-1.4,2.44-2.47,3.42-2,1.83-2.31,4.46-4.4,6.21-3.88,3.27-7.59,5.95-11.13,8.04-1.45,.85-2.98,1.44-4.61,1.75-1.7,.33-3.35,.76-4.95,1.28-1.43,.47-2.68,1.11-4.19,1.43-5.16,1.08-10.02,1.71-14.59,1.9-6.03,.24-11.83-1.07-17.41-3.95-6.95-3.58-9.74-8.87-12.3-16.01-1.28-3.55-1.52-8.32-.59-11.57,.82-2.84,1.33-6.01,2.96-8.44,4.35-6.54,10.59-12.99,18.27-16.36Z"/>
  <path class="cls-5" d="M414.25,383.86c-.19,3.16-1.82,5.23-4.88,6.21-3.78,1.2-7.59,1.54-11.44,1.03l9.6-10.3c.25-.27,.54-.31,.86-.14l5.86,3.19Z"/>
  <path class="cls-2" d="M370.19,447.64c-1.71-10.13,3.21-20.3,12.64-24.53,5.49-2.46,11.07-3.26,16.75-2.42,6.03,.9,12.81,4.19,15.67,9.77,3.46,6.74,3.03,15.45-1.65,21.42-3.67,4.69-8.37,7.86-14.08,9.53-12.29,3.58-26.93,.44-29.33-13.77Z"/>
  <path class="cls-3" d="M984.95,434c2.18,.31,3.63,.6,4.33,.88,6.19,2.45,12.4,4.86,18.62,7.24,3.52,1.34,7.09,3.07,10.59,4.74,5.7,2.71,11.15,6.12,16.32,10.23,4.31,3.42,7.43,7.73,9.37,12.93,1.42,3.84,.61,8.61,.68,12.66,.05,2.44-.42,4.79-1.42,7.03-1.49,3.38-2.98,6.43-4.46,9.14-2.38,4.37-4.82,8.78-7.3,13.24-2.56,4.62-5.18,8.85-7.84,12.69-18.09,26.08-39.37,50.27-61.26,73.64-12.95,13.82-27.85,29.47-42.54,44.05-15.09,14.98-30.95,30.63-47.57,46.93-5.45,5.34-10.43,10.75-14.97,16.46-.62,.77-.9,2.17-.83,4.19,.13,4.06,.28,7.95,.85,11.95,.67,4.65,1.27,9.24,1.81,13.76,.54,4.48,1.13,9.05,1.78,13.73,1.99,14.31,3.99,28.65,6,43.03,.54,3.86,.79,7.59,.76,11.2,0,1.46,.73,2.4,.92,3.78,1.07,8.43,2.1,16.08,3.08,22.95,1.24,8.73,2.59,18.48,4.05,29.24,.87,6.42,1.42,14.49,1.67,24.23-.83,.69-1.62,.94-2.39,.74-.96-.23-1.97,.05-2.66,.75-3.99,4.05-7.91,7.08-13.67,8.02-3.51,.58-7.04,.11-10.59-1.42-7.15-3.09-9.91-9.94-11.14-17.26-.6-3.6-2.6-6.15-4.26-9.22-.31-.59-.8-.87-1.47-.86l-2.87,.05c-1.04,.02-1.89-.8-1.91-1.84h0c-.03-1.56-.21-3.12-.54-4.68-1.64-7.89-6.6-12.11-14.87-12.66-2.09-.14-4.19-.17-6.31-.08-1.47,.05-2.73,.59-3.77,1.6-.86,.83-1.76,1.64-2.69,2.42-1.21,1.03-2.25,2.2-3.13,3.53-.02,.03-.05,.03-.09,0l-.19-.18c-.15-.14-.14-.27,.03-.38,.46-.3,.51-.63,.15-.99-.18-.18-.31-.39-.37-.64-.19-.68-.4-1.34-.63-1.98-.19-.54-.6-.98-1.22-1.31-1.48-.79-2.63-.52-3.48,.82-.22,.35-.52,.6-.92,.73l-3.75,1.32c-.34,.11-.65,.06-.93-.15-.66-.5-1.18-.36-1.57,.43-.71,1.47-.95,3.2-.7,5.2,.04,.34-.19,.65-.53,.69,0,0-.02,0-.03,0l-3.02,.26c-.39,.03-.58-.15-.58-.54v-.45c0-.58-.23-.69-.68-.33-1.75,1.42-3.66,2.89-5.74,4.39-.88,.64-1.43,1.54-1.67,2.72-.06,.29-.22,.5-.49,.63l-3.65,1.72c-.27,.13-.44,.4-.44,.71v.31c0,.45-.21,.76-.64,.92-.39,.15-.63,.43-.7,.83-.05,.34-.24,.57-.56,.69l-4.06,1.5c-.12,.04-.22,.02-.31-.08-.08-.08-.16-.16-.25-.22-.28-.19-.52-.14-.7,.15-.35,.54-.87,.9-1.54,1.05-.41,.1-.74,.4-.88,.8l-.64,1.85c-.14,.41-.42,.64-.85,.72l-1.34,.24c-.45,.08-.67,.34-.67,.8v.28c0,.28-.11,.5-.33,.66-.98,.73-1.63,1.63-1.96,2.69-.11,.35-.33,.6-.67,.75-.34,.15-.49,.45-.46,.89,.05,.61-.23,.89-.84,.83-.33-.04-.58,.09-.73,.39-.22,.41-.62,.7-1.08,.78-.65,.12-1.15,.47-1.48,1.06-.16,.3-.41,.49-.74,.57-1.13,.28-2.24,.77-3.35,1.44-.21,.13-.34,.32-.4,.56l-.5,2.22c-.08,.38-.31,.54-.69,.48-.38-.06-.69,.05-.95,.33-.14,.15-.14,.3,0,.45,.06,.06,.13,.11,.21,.15,.48,.22,.48,.45,0,.67-1.46,.68-2.89,1.47-4.29,2.39-.16,.11-.28,.26-.34,.46-.07,.25-.21,.44-.43,.59-.65,.43-1.24,.94-1.75,1.53-.16,.18-.35,.31-.57,.4-.19,.07-.38,.1-.57,.11-.31,0-.55,.13-.73,.38-1.58,2.19-2.63,4.12-5.51,5-.93,.28-1.91,1.32-2.58,2.02-.18,.19-.4,.31-.66,.36-.85,.15-1.61,.48-2.28,.98-.62,.47-1.27,.89-1.96,1.27-2.17,1.18-4.4,2.43-6.7,3.74-1.05,.6-1.62,1.7-2.55,2.48-.24,.2-.32,.45-.24,.75,.04,.2,.02,.39-.05,.58-.11,.28-.33,.44-.64,.47-1.01,.1-1.86,.62-2.55,1.56-.2,.27-.25,.57-.16,.89,.1,.34,.05,.63-.17,.88-.36,.41-.84,.59-1.44,.53-.74-.08-1.16,.26-1.23,1.01-.04,.38-.24,.61-.62,.69l-2.57,.57c-.11,.02-.15,.09-.09,.19,.4,.81,.21,1.5-.57,2.07-1.1,.8-1.75,1.78-1.96,2.94-.05,.29-.22,.41-.51,.36-.79-.13-1.43,.15-1.91,.83-.18,.25-.4,.29-.65,.14-.82-.51-1.45-.33-1.9,.53-.13,.23-.34,.4-.6,.47-.1,.03-.2,.04-.3,.04-.41-.03-.66,.15-.77,.54l-.5,1.81c-.09,.32-.3,.49-.63,.52-1.06,.09-2.07,.39-3,.9-.27,.15-.44,.37-.53,.66-.11,.4-.34,.7-.7,.9-1.1,.61-1.7,2.08-1.05,3.15,.1,.16,.05,.23-.14,.21-.58-.06-.97,.18-1.18,.71-.11,.28-.37,.47-.66,.48-.73,.05-1.15,.42-1.26,1.11-.07,.42-.42,.73-.83,.74-1.14,.05-1.72,.61-1.74,1.7,0,.45-.23,.7-.68,.74-3.64,.4-6.53,2.09-8.67,5.07-.22,.31-.23,.62-.02,.94l.45,.67c.24,.36,.15,.59-.27,.68-.13,.03-.26,.03-.39,0-.33-.09-.59,0-.78,.29-.16,.24-.19,.5-.08,.78,.08,.21,.23,.26,.43,.15,.09-.05,.18-.04,.25,.02,.36,.3,.31,.52-.14,.66-.54,.18-.91,.55-1.11,1.13-.1,.33-.24,.34-.42,.05l-.14-.25c-.17-.3-.42-.4-.75-.31-.3,.08-.62,.28-.98,.62-16.76-8.19-27.92-13.76-33.47-16.7-3.62-1.91-6.86-3.57-9.74-4.98-1.34-.66-2.9-.39-4.36-.63-.34-.05-.6-.22-.8-.5-1.09-1.6-2.52-2.82-4.28-3.68-8-3.9-16.4-7.89-25.19-11.96-3.2-1.49-6.27-2.52-9.79-1.04-7.35,3.09-14.91,6.66-22.68,10.7-13.12,6.83-26.02,13.52-38.7,20.08-20.5,10.6-38.83,19.78-55,27.52-1.88,.9-3.81,1.78-5.8,2.62,.27-.48,.75-.82,1.43-1.02,.28-.08,.45-.28,.51-.57,.24-1.3,.92-2.35,2.05-3.16,3.28-2.35,6.7-4.73,10.25-7.16,2.89-1.97,5.36-4.34,8.24-6.49,3.9-2.91,8.07-6.1,12.51-9.58,11.95-9.35,25.54-19.27,38.82-28.12,7.43-4.95,12.47-8.5,15.12-10.63,13.11-10.59,27.94-23.05,44.48-37.38,4.42-3.83,9.58-7.41,15.48-10.75,3.68-2.09,7.39-4.2,11.11-6.34,9.47-5.46,19.09-11,28.86-16.62,6.9-3.98,16.75-10.4,29.57-19.25,5.61-3.87,11.08-6.4,15.13-12.4,3.64-5.39,7.34-10.61,11.55-15.54,1.54-1.8,3.45-3.46,5.75-4.99,4.91-3.25,8.58-6.86,12.39-11.07,1.23-1.37,2.71-2.4,4.42-3.09,2.76-1.13,5.58-2.19,8.47-3.18,.41-.14,.83-.37,1.28-.68,.22-.15,.2-.17-.05-.06-.1,.04-.21,.05-.32,.02-.27-.08-.29-.19-.05-.33,1.43-.83,2.85-1.93,4.24-3.29,.47-.46,1.01-.84,1.64-1.13,1.03-.48,1.93-.97,2.97-1.43,.41-.18,.77-.45,1.06-.82,.2-.24,.46-.39,.77-.45l4.41-.79c.3-.05,.57-.18,.81-.38,1.24-1.04,2.49-2.02,3.74-2.93,.87-.64,1.65-1.72,2.33-3.27,.28-.64,1.3-1.45,3.08-2.43,.26-.14,.52-.14,.78,0,.72,.36,1.43,.29,2.12-.21,.26-.19,.53-.21,.81-.05,.34,.19,.63,.12,.85-.19,.15-.21,.19-.44,.13-.69l-.08-.32c-.02-.11-.04-.22-.04-.34,0-.4,.11-.6,.3-.61,.5-.02,.58-.21,.24-.58-.39-.44-.31-.87,.24-1.31,.03-.02,.07-.02,.09,0,.01,.01,.02,.03,.01,.04-.02,.15,0,.22,.08,.2,.53-.11,.54-.24,.02-.38-.27-.08-.54-.17-.82-.27-.22-.08-.25-.04-.11,.15,.02,.04,.05,.07,.09,.09,.33,.24,.29,.36-.12,.34-.38,0-.67-.17-.87-.48-.17-.27-.09-.59,.25-.94,7.85,3.25,16.17,4.85,24.98,4.78,16.22-.12,30.18-5.32,41.87-15.59,7.77-6.81,15.71-18.35,16.94-29.24,.57-5.08,1.4-9.65,1.01-14.93-.25-3.39-.53-5.71-.84-6.95-3.05-12.04-9.25-22.06-18.57-30.04-2.11-1.81-4.73-3.42-7.17-5.14l4.1,1.41c.29,.1,.44,.3,.46,.61,.02,.34,.21,.44,.58,.28,.34-.14,.57-.47,.58-.83l.08-2.17c.02-.49,.15-.95,.39-1.39,.48-.87,.69-1.8,.63-2.81-.06-1.06,.15-2.18,.63-3.34,.68-1.63,1.36-3.06,2.06-4.28,.41-.71,1.03-1.34,1.88-1.91,.27-.18,.25-.24-.07-.19-.07,.01-.14,0-.19-.05-.25-.23-.48-.21-.69,.07-.25,.33-.56,.4-.93,.22-.21-.1-.31-.27-.31-.5,0-.56-.31-.86-.93-.93-.4-.05-.76-.26-.99-.58l-.66-.93c7.91,3.49,18.69,.99,25.91-2.89,10.2-5.47,18.06-12.83,23.59-22.07,1.29-2.16,2.88-6.12,2.02-8.62-.77-2.28-3.55-2.06-5.2-1-10.23,6.58-19.17,11.93-31.63,13.66-.24,.03-.48-.09-.6-.3l-2.04-3.57c-.33-.58-.18-1.32,.35-1.71,11.36-8.42,18.42-21.78,16.05-36.19,.38-.3,.66,.06,.86,1.08,.05,.25,.18,.32,.4,.19,.51-.29,1.18-.11,2.01,.54,5.1,6.66,11.76,10.56,19.97,11.7,.8,.11,1.45,.7,1.63,1.48,1.72,7.08,4.96,13.01,9.7,17.81,9.68,9.8,21.59,13.27,35.72,10.4,4.9-.99,8.49-4.24,11.91-7.5,5.44-5.2,10.21-9.78,14.29-13.74,3-2.91,5.82-6.11,9.01-8.63,1.91-1.5,2.09-3.67,4.02-5.16,5.49-4.22,8.56-9.88,13.08-14.93,4.39-4.9,8.59-9.63,12.59-14.19,2.24-2.54,5.04-5.06,8.41-7.56,4.8-3.56,9.26-7.44,13.38-11.64,1.23-1.26,3.1-1.98,5.59-2.16,.33-.02,.58-.17,.75-.44,4.74-7.38,9.04-15.72,12.9-25.01,1.02-2.43,2.87-6.21,5.26-7.84,4.74-3.2,3.46-9.51,3.21-14.52-.25-5.1-2.45-8.95-5.65-12.59-4.45-5.06-9.65-8.81-15.59-11.27-7.49-3.1-14.58-5.83-21.26-8.19-1.09-.39-2.01-1.09-2.75-2.1-1.03-1.4-1.74-2.89-2.13-4.49-.07-.29-.23-.51-.49-.67l-3.75-2.3Z"/>
  <path class="cls-2" d="M315.66,438.75c4.37,3.19,9.89,7.53,12.22,12.81,8.83,19.96-5.14,36.55-21.45,46.44-8.86,5.37-18.89,9.67-30.07,12.88-8.09,2.33-16.03,4.02-23.8,5.06,21.64-19.47,40.24-42.03,56.24-66.17,1.72-2.58,4-6.26,6.86-11.02Z"/>
  <path class="cls-3" d="M855.12,567.53c-.82-.65-1.49-.83-2.01-.54-.22,.13-.35,.06-.4-.19-.2-1.02-.49-1.38-.86-1.08-.56-2.52-2.1-5.65-4.84-6.35-.3-.08-.58-.03-.84,.14-1.16,.72-2.1,1.55-2.83,2.5-7.56,9.79-14.46,17.18-25.51,23.4-.31,.18-.61,.17-.92,0-23.64-13.77-53.4-15.89-79.91-11.29,1.26-.42,1.8-.93,1.61-1.54-.05-.16-.04-.33,.04-.47,.71-1.35,1.71-2.39,3-3.11,4.69-2.65,9.67-4.86,14.1-8.08,10.55-7.65,19.98-16.04,29.6-24.51,6.45-5.67,13.31-10.94,19.93-16.22,7.69-6.12,13.76-12.75,16.38-22.27,.6-2.18,.55-4.33,.62-6.61,.02-.75,.4-1.06,1.13-.93,6.12,1.1,12.39,1.93,18.38,3.38,5.86,1.41,11.8,2.66,17.82,3.76,.74,.14,1.28,.79,1.28,1.55-.04,3.67,.44,7.14,1.44,10.43,.22,.72,.07,1.51-.4,2.1-5.21,6.51-8.76,12.74-9.93,21-.54,3.76-1.13,7.55-1.78,11.39-.67,3.93-.7,7.65-.11,11.15,.27,1.6,.6,3.15,.97,4.64,.33,1.29,.86,2.53,1.57,3.71,.82,1.34,1.63,2.69,2.45,4.06Z"/>
  <path d="M421.03,647.3c-7.62-.22-15.15-2.06-22.59-5.52-.93-.44-2.29-1.2-4.06-2.3-1.46-.91-2.84-1.65-4.15-2.23-15.47-11.6-25.11-27.91-29.31-46.47-.05-.25-.3-.4-.55-.35,0,0-.01,0-.02,0-2.93,.7-5.95,.9-9.07,.58-14.43-1.45-29.15-10.47-38.25-21.73-1.61-1.99-2.69-4.15-3.26-6.48-.95-3.95,2.16-5.16,5.36-3.78,3.47,1.5,6.95,2.99,10.44,4.46,10.59,4.49,21.62,5.8,33.08,3.93,.37-.06,.62-.41,.56-.78,0-.05-.02-.1-.04-.15-.22-.53-.6-.9-1.16-1.11-8.26-3.11-14.97-7.79-20.12-14.06-6-7.3-10.19-17.78-7.98-27.08,.75-3.19,3.33-6.11,6.75-2.97,3.35,3.08,6.6,6,9.74,8.77,5.56,4.91,11.79,8.73,18.68,11.45,.37,.15,.65,.05,.83-.31,8-15.36,21.08-25.01,39.24-28.94,32.23-7,63.64,5.2,73.27,38.74,.92,3.21,1.9,6.42,2.39,9.69,3.74,25-2.62,52.22-20.57,70.54-10.31,10.51-23.39,15.88-39.23,16.09Zm27.86-74.13c-12.2-1.15-17.95,11.75-17.64,21.89,.3,9.6,7.25,16.7,17.02,16.5,12.64-.24,19.97-15.32,16.59-26.4-2.2-7.2-7.53-11.2-15.97-12Z"/>
  <path d="M851.85,565.73c2.37,14.42-4.69,27.77-16.05,36.19-.53,.4-.69,1.13-.35,1.71l2.04,3.57c.12,.21,.36,.33,.6,.3,12.46-1.72,21.4-7.08,31.63-13.66,1.65-1.06,4.43-1.28,5.2,1,.85,2.5-.73,6.46-2.02,8.62-5.53,9.24-13.39,16.59-23.59,22.07-7.21,3.87-17.99,6.38-25.91,2.89-4.63-2.57-9.25-5.21-13.84-7.93-17.52-10.35-36.45-14.44-56.78-12.26-10.6,1.14-20.39,3.91-29.37,8.33-5.44,2.68-11.22,5.84-17.34,9.47-3.67,2.19-10.15,4.92-14.07,2.96-8.82-4.42-9.62-13.56-6.18-21.99,4.12-9.47,12.82-17.21,21.86-22.32,9.18-5.18,18.95-8.7,29.33-10.56,26.51-4.6,56.27-2.49,79.91,11.29,.3,.18,.61,.18,.92,0,11.04-6.22,17.95-13.61,25.51-23.4,.73-.95,1.68-1.78,2.83-2.5,.26-.17,.54-.21,.84-.14,2.74,.7,4.27,3.83,4.84,6.35Z"/>
  <path class="cls-2" d="M431.25,595.06c-.31-10.14,5.44-23.05,17.64-21.89,8.44,.8,13.77,4.8,15.97,12,3.38,11.09-3.95,26.16-16.59,26.4-9.77,.19-16.72-6.9-17.02-16.5Z"/>
  <path class="cls-3" d="M685.81,607c-3.44,8.43-2.64,17.57,6.18,21.99,3.92,1.96,10.4-.77,14.07-2.96,6.12-3.64,11.9-6.79,17.34-9.47,8.98-4.42,18.77-7.19,29.37-8.33,20.33-2.18,39.26,1.91,56.78,12.26,4.59,2.72,9.2,5.36,13.84,7.93l.66,.93c.23,.32,.59,.53,.99,.58,.61,.06,.92,.37,.93,.93,0,.23,.1,.4,.31,.5,.37,.18,.68,.11,.93-.22,.21-.28,.44-.3,.69-.07,.05,.05,.12,.07,.19,.05,.32-.05,.34,0,.07,.19-.85,.56-1.47,1.2-1.88,1.91-.7,1.22-1.38,2.65-2.06,4.28-.48,1.16-.69,2.27-.63,3.34,.06,1.01-.15,1.95-.63,2.81-.24,.44-.37,.9-.39,1.39l-.08,2.17c-.01,.36-.24,.69-.58,.83-.37,.16-.56,.06-.58-.28-.02-.31-.17-.51-.46-.61l-4.1-1.41c-1.98-1.03-4.04-2.06-6.18-3.09-6.55-3.13-13.09-5.04-19.62-5.71-1.83-.19-3.6-.24-5.3-.15-4.55,.23-9.09-.12-13.52,.71-22.51,4.21-41.38,19.21-47.31,41.52-.94,3.57-1.67,7.47-2.17,11.7-.24,2.08-.13,4.15,.33,6.21,.53,2.34,1.06,4.63,1.58,6.88,3,12.94,9.84,23.35,20.52,31.2,4.67,3.43,9.15,6.04,13.45,7.83-.33,.36-.41,.67-.25,.94,.2,.31,.49,.47,.87,.48,.41,.01,.44-.1,.12-.34-.04-.02-.07-.05-.09-.09-.15-.18-.11-.23,.11-.15,.27,.1,.54,.19,.82,.27,.52,.15,.51,.27-.02,.38-.07,.02-.1-.05-.08-.2,0-.03-.02-.06-.05-.06-.02,0-.04,0-.05,.01-.54,.44-.62,.87-.24,1.31,.33,.37,.25,.56-.24,.58-.19,0-.29,.21-.3,.61,0,.11,.01,.23,.04,.34l.08,.32c.07,.25,.02,.48-.13,.69-.22,.31-.51,.38-.85,.19-.28-.15-.55-.13-.81,.05-.7,.5-1.4,.57-2.12,.21-.26-.13-.52-.13-.78,0-1.77,.99-2.8,1.8-3.08,2.43-.68,1.54-1.46,2.63-2.33,3.27-1.25,.91-2.5,1.89-3.74,2.93-.24,.2-.51,.33-.81,.38l-4.41,.79c-.31,.06-.57,.21-.77,.45-.3,.36-.65,.64-1.06,.82-1.03,.46-1.94,.95-2.97,1.43-.63,.3-1.18,.67-1.64,1.13-1.39,1.36-2.8,2.46-4.24,3.29-.24,.14-.23,.25,.05,.33,.11,.03,.21,.02,.32-.02,.25-.11,.26-.09,.05,.06-.45,.31-.87,.54-1.28,.68-2.89,1-5.71,2.06-8.47,3.18-1.71,.7-3.18,1.73-4.42,3.09-3.8,4.21-7.48,7.82-12.39,11.07-2.3,1.53-4.22,3.19-5.75,4.99-4.21,4.94-7.91,10.15-11.55,15.54-4.06,6.01-9.53,8.53-15.13,12.4-12.82,8.86-22.67,15.27-29.57,19.25-9.78,5.63-19.4,11.17-28.86,16.62-3.72,2.14-7.42,4.26-11.11,6.34-5.9,3.34-11.06,6.92-15.48,10.75-16.54,14.33-31.36,26.79-44.48,37.38-2.65,2.14-7.69,5.68-15.12,10.63-13.27,8.85-26.87,18.76-38.82,28.12-4.45,3.48-8.62,6.67-12.51,9.58-2.88,2.15-5.35,4.52-8.24,6.49-3.56,2.43-6.97,4.81-10.25,7.16-1.13,.8-1.81,1.86-2.05,3.16-.05,.3-.22,.49-.51,.57-.68,.2-1.16,.54-1.43,1.02l-14.36,6.81c-.27,.13-.55,.15-.84,.08-.73-.18-1.51-.31-2.2,.07-1.42,.8-2.75,1.71-4,2.74-3.28,2.7-7.03,3.44-10.82,5.11-15.34,6.76-30.25,12.75-44.74,17.96-3.44,1.23-10.76,3.51-21.97,6.81-10.33,3.05-20.65,5.11-30.97,6.2-10.28,1.08-20.47,.91-29.81-3.59-4.37-2.11-6.99-5.92-10.22-9.31-.96-1.01-1.02-2.36-1.59-3.57-6.35-13.54-8.3-28.51-8.57-43.37,.53,1.8,.7,3.71,.54,5.74-.06,.71,.44,1.35,1.14,1.47,1.65,.28,2.94-.61,3.86-2.68,.45-1.02,.81-2.05,1.1-3.1,.08-.29,.26-.54,.51-.72,.51-.36,.96-.82,1.34-1.38,.85-1.2,1.81-2.3,2.89-3.28,1.87-1.69,3.8-3.5,5.81-5.41,.77-.73,1.48-1.49,2.14-2.29,1.23-1.49,2.98-2.04,4.14-3.56,.68-.88,1.46-1.73,2.32-2.57,.8-.77,1.57-1.65,2.3-2.62,1.54-2.03,3.63-3.86,6.27-5.51,2.38-1.49,4.05-2.66,4.99-3.5,1.74-1.56,3.47-3.2,5.21-4.91,1.03-1.01,2.66-2.25,4.88-3.72,2.22-1.46,4.19-3.29,5.91-5.48,1.37-1.74,3.29-2.64,5.09-3.87,1.21-.83,2.55-1.59,4.03-2.27,3.51-1.62,7.21-4.11,11.1-7.46,8.83-7.62,17.03-15.35,24.6-23.17,5.72-5.92,11.24-11.6,16.55-17.05,.87-.89,1.71-1.86,2.54-2.9,.65-.83,1.32-1.59,2.01-2.27,7.05-7.01,14.3-14.03,21.77-21.05,3.44-3.24,6.9-6.18,10.36-8.81,2.45-1.86,4.89-3.72,7.32-5.58,2.4-1.83,4.91-3.6,7.53-5.31,7.16-4.67,13.9-9.24,20.22-13.71,1.02-.72,2.08-1.39,3.17-2.02,1.1-.64,2.15-1.36,3.14-2.19,1.21-.99,2.53-1.91,3.97-2.76,.79-.47,1.52-1,2.2-1.62,1.82-1.63,3.65-3.18,5.49-4.65,1.72-1.39,3.15-2.91,4.27-4.55,1.74-2.53,3.49-4.98,5.57-7.3,2.07-2.32,4.07-4.65,6.01-6.99,2.1-2.54,4.45-4.55,6.88-6.75,3.48-3.14,7.69-5.34,11.93-7.26,.93-.42,1.88-.71,2.88-.89,.69-.13,1.3-.41,1.82-.83,1.05-.86,2.21-1.55,3.5-2.06,.65-.26,1.26-.6,1.85-1.03,.83-.62,1.43-1.13,2.48-1.66,1.34-.69,1.33-1.63-.05-2.82,9.97,2.79,21.71,4.99,35.21,6.6,3.57,.42,6.63,.59,9.17,.5,1.86-.06,3.74-.1,5.66-.11,11.24-.08,21.86-1.01,31.85-2.78,22.86-4.04,45.35-13.08,60.94-30.26,4.05-4.46,7.66-10.47,7.27-16.56-.28-4.33-2.22-7.56-5.83-9.72-6.16-3.68-14.07-1.55-19.23,2.94-3.51,3.07-6.22,6.85-10.18,9.65-5.15,3.63-10.75,6.41-16.81,8.36-11.41,3.66-23.17,5.75-35.26,6.27,.05-.88,.11-1.75,.16-2.61,.07-.94,.35-1.73,.85-2.37,.76-.96,1.72-1.66,2.87-2.12,3.3-1.33,6.83-2.79,10.6-4.37,1.37-.57,1.9-1.69,3.03-2.47,6.74-4.63,12.31-9.94,16.69-15.92,1.17-1.6,2.31-2.88,3.42-3.85,.2-.18,.43-.24,.68-.18,5.64,1.2,11.31,1.53,17.02,.99,5.23-.5,10.32-2.29,15.29-5.35,10.73-6.64,16.47-16.58,19.33-28.46,1.89-7.81,2.4-14.69,3.08-22.31,.23-2.63,.05-5.12-.14-7.71-.13-1.71-.83-3.26-.8-4.98,0-.7-.12-1.4-.37-2.11-.28-.8-.4-1.51-.34-2.13,.08-.91,.14-1.85,.18-2.83,.04-.88,.22-1.78,.56-2.69,.8-2.15,.89-4.03,.26-5.62-.41-1.04-.69-2.13-.85-3.26-.47-3.19-.76-6.51-.88-9.94-.06-1.67,.57-2.63,1.89-2.87,.79-.14,1.72-.2,2.81-.18,2.74,.06,5.09,.36,7.05,.9,.65,.18,1.27,.24,1.88,.21,.66-.04,1.3-.08,1.91-.11,1.06-.05,1.21,.29,.45,1.03-2.34,2.28-4.58,4.7-6.72,7.27-.6,.72-1.25,1.42-1.94,2.1-.68,.67-1.34,1.36-1.98,2.07-.77,.86-1.09,1.65-.94,2.39,.19,.93,.83,1.69,1.93,2.29Z"/>
  <path class="cls-6" d="M390.22,637.25c1.31,.58,2.69,1.32,4.15,2.23,1.78,1.1,3.13,1.87,4.06,2.3,7.44,3.46,14.97,5.3,22.59,5.52,6.69,5.27,11.9,10.83,15.62,16.69,10.37,16.35,11.18,35.57,2.03,52.76-3.6,6.77-7.73,13.8-14.39,18-6.91,4.37-12.9,7.44-17.97,9.21-22.86,8-48.23,2.84-65.83-14.12-4.84-4.66-8.93-10.91-12.29-18.75-.64-1.49-1.1-3.05-1.39-4.65-.4-2.22-1.36-4.1-1.67-6.4-1.35-9.99-.17-19.37,3.55-28.13,9.02-21.26,31.06-35.04,54.23-35.34,.81,0,2.02,.13,3.62,.42,1.25,.23,2.48,.31,3.67,.25Z"/>
  <path class="cls-6" d="M816.77,645.74c2.44,1.72,5.05,3.33,7.17,5.14,9.33,7.98,15.52,18,18.57,30.04,.31,1.24,.6,3.56,.84,6.95,.39,5.28-.44,9.84-1.01,14.93-1.23,10.89-9.17,22.42-16.94,29.24-11.7,10.27-25.66,15.47-41.87,15.59-8.81,.07-17.13-1.53-24.98-4.78-4.29-1.79-8.78-4.4-13.45-7.83-10.68-7.86-17.52-18.26-20.52-31.2-.52-2.24-1.05-4.54-1.58-6.88-.46-2.06-.57-4.13-.33-6.21,.5-4.23,1.22-8.14,2.17-11.7,5.93-22.31,24.8-37.31,47.31-41.52,4.43-.83,8.96-.48,13.52-.71,1.7-.08,3.47-.03,5.3,.15,6.53,.67,13.07,2.57,19.62,5.71,2.14,1.03,4.2,2.06,6.18,3.09Z"/>
  <path d="M588.84,722.23c12.09-.52,23.85-2.61,35.26-6.27,6.06-1.94,11.67-4.73,16.81-8.36,3.97-2.79,6.67-6.58,10.18-9.65,5.15-4.49,13.07-6.62,19.23-2.94,3.61,2.15,5.55,5.39,5.83,9.72,.39,6.09-3.22,12.1-7.27,16.56-15.59,17.18-38.08,26.22-60.94,30.26-9.99,1.77-20.61,2.69-31.85,2.78-1.92,.01-3.8,.05-5.66,.11-2.54,.09-5.6-.08-9.17-.5-13.5-1.61-25.24-3.81-35.21-6.6-18.54-5.79-41.58-16.59-48.79-35.86-3.38-9.01,.93-18.52,11.48-18.17,6.58,.21,11.73,4.21,16.22,8.88,4.87,5.07,11.7,8.83,18.24,11.33,20.32,7.8,43.98,9.93,65.65,8.7Z"/>
  <path class="cls-3" d="M877.58,883.91c.45,5.35,.87,10.72,1.27,16.09,.43,5.72,1.13,10.94,2.11,16.49,.27,1.54,.26,3.58-.05,6.12-.36,3.1-.5,6.09-.4,8.96,.45,13.47,.1,27.05-1.05,40.76-.9,10.6-2.32,19.93-5.61,29.35-2.94,8.42-7.79,15.16-17.11,17.09-6.31,1.3-12.63,1.58-18.95,.85-12.33-1.42-24.04-4.33-36.44-7.98-2.03-.6-4.04-1.35-6.03-2.25-.29-.13-.57-.12-.85,.05-1.49,.84-3.36,.79-4.72-.28-1.48-1.18-2.94-2.01-4.38-2.49-2.98-.99-5.75-2-8.29-3.05-4.68-1.92-7.49-3.06-8.41-3.41-9.94-3.75-20.4-8.1-31.39-13.06-3.97-1.79-9.55-3.8-14.33-6.08-4.65-2.21-9.32-4.36-14.03-6.45-1.77-.79-3.52-1.4-5.24-1.83-.65-.17-1.04-.83-.88-1.48,.06-.23,.18-.43,.35-.59,.21-.19,.37-.43,.46-.7,.42-1.23,.13-1.43-.88-.61-2.51,2.07-5.16,.15-7.53-1-13.9-6.71-24.85-12.08-32.86-16.11,.36-.33,.68-.54,.98-.62,.33-.09,.58,.01,.75,.31l.14,.25c.18,.3,.31,.28,.42-.05,.19-.57,.56-.95,1.11-1.13,.45-.14,.49-.36,.14-.66-.08-.06-.16-.07-.25-.02-.2,.11-.34,.06-.43-.15-.11-.28-.08-.54,.08-.78,.19-.28,.45-.38,.78-.29,.13,.04,.26,.04,.39,0,.42-.09,.51-.32,.27-.68l-.45-.67c-.21-.32-.21-.64,.02-.94,2.15-2.98,5.04-4.67,8.67-5.07,.45-.05,.67-.3,.68-.74,.02-1.08,.6-1.65,1.74-1.7,.42-.02,.77-.33,.83-.74,.11-.69,.54-1.06,1.26-1.11,.29-.02,.55-.2,.66-.48,.21-.53,.6-.77,1.18-.71,.19,.02,.23-.05,.14-.21-.64-1.07-.05-2.54,1.05-3.15,.36-.2,.59-.5,.7-.9,.08-.3,.26-.52,.53-.66,.94-.51,1.94-.81,3-.9,.33-.02,.54-.2,.63-.52l.5-1.81c.11-.39,.37-.57,.77-.54,.1,0,.2,0,.3-.04,.26-.07,.47-.24,.6-.47,.45-.86,1.08-1.03,1.9-.53,.25,.16,.47,.11,.65-.14,.48-.68,1.12-.96,1.91-.83,.29,.05,.46-.07,.51-.36,.21-1.16,.86-2.14,1.96-2.94,.78-.57,.97-1.26,.57-2.07-.05-.1-.02-.17,.09-.19l2.57-.57c.38-.08,.58-.31,.62-.69,.08-.75,.49-1.09,1.23-1.01,.6,.06,1.08-.11,1.44-.53,.22-.25,.28-.54,.17-.88-.09-.32-.04-.62,.16-.89,.69-.94,1.54-1.46,2.55-1.56,.31-.03,.52-.19,.64-.47,.08-.19,.1-.38,.05-.58-.07-.3,0-.55,.24-.75,.93-.78,1.5-1.88,2.55-2.48,2.29-1.31,4.52-2.56,6.7-3.74,.69-.38,1.34-.8,1.96-1.27,.67-.5,1.43-.83,2.28-.98,.26-.05,.48-.17,.66-.36,.66-.71,1.65-1.74,2.58-2.02,2.88-.88,3.93-2.81,5.51-5,.18-.25,.43-.37,.73-.38,.19,0,.38-.04,.57-.11,.22-.08,.41-.22,.57-.4,.51-.59,1.1-1.1,1.75-1.53,.22-.15,.36-.34,.43-.59,.06-.2,.17-.35,.34-.46,1.4-.91,2.83-1.71,4.29-2.39,.48-.22,.48-.45,0-.67-.08-.04-.15-.09-.21-.15-.15-.15-.15-.3,0-.45,.26-.28,.58-.39,.95-.33,.38,.05,.61-.11,.69-.48l.5-2.22c.05-.24,.19-.43,.4-.56,1.11-.68,2.22-1.16,3.35-1.44,.33-.08,.58-.28,.74-.57,.33-.59,.83-.94,1.48-1.06,.46-.08,.86-.37,1.08-.78,.16-.3,.4-.43,.73-.39,.61,.06,.89-.21,.84-.83-.03-.44,.12-.74,.46-.89,.34-.15,.56-.4,.67-.75,.33-1.06,.98-1.96,1.96-2.69,.22-.16,.33-.38,.33-.66v-.28c0-.45,.22-.72,.67-.8l1.34-.24c.43-.07,.71-.31,.85-.72l.64-1.85c.14-.4,.47-.7,.88-.8,.68-.16,1.19-.51,1.54-1.05,.18-.28,.41-.33,.7-.15,.09,.06,.18,.13,.25,.22,.08,.1,.19,.12,.31,.08l4.06-1.5c.32-.12,.51-.35,.56-.69,.07-.4,.31-.67,.7-.83,.42-.16,.64-.46,.64-.92v-.31c0-.31,.17-.58,.44-.71l3.65-1.72c.27-.13,.43-.34,.49-.63,.24-1.18,.79-2.09,1.67-2.72,2.08-1.51,4-2.97,5.74-4.39,.45-.36,.68-.25,.68,.33v.45c0,.39,.19,.57,.58,.54l3.02-.26c.33-.03,.58-.32,.56-.66,0,0,0-.02,0-.03-.25-2-.02-3.73,.7-5.2,.39-.79,.91-.93,1.57-.43,.28,.22,.59,.27,.93,.15l3.75-1.32c.39-.14,.7-.38,.92-.73,.84-1.34,2-1.61,3.48-.82,.62,.33,1.02,.76,1.22,1.31,.22,.64,.43,1.3,.63,1.98,.07,.24,.19,.45,.37,.64,.36,.36,.31,.69-.15,.99-.16,.11-.17,.24-.03,.38l.19,.18s.07,.03,.09,0c.88-1.32,1.92-2.5,3.13-3.53,.93-.79,1.82-1.59,2.69-2.42,1.05-1.01,2.3-1.54,3.77-1.6,2.12-.08,4.22-.06,6.31,.08,8.28,.55,13.23,4.77,14.87,12.66,.33,1.56,.51,3.12,.54,4.68,.02,1.04,.88,1.86,1.91,1.84h0l2.87-.05c.67-.01,1.16,.28,1.47,.86,1.66,3.07,3.66,5.62,4.26,9.22,1.23,7.32,3.99,14.17,11.14,17.26,3.54,1.53,7.07,2.01,10.59,1.42,5.76-.94,9.68-3.97,13.67-8.02,.69-.7,1.7-.98,2.66-.75,.76,.19,1.56-.05,2.39-.74Z"/>
</svg>